<svg width="318" height="196" viewBox="0 0 159 98" xmlns="http://www.w3.org/2000/svg" xmlns:xlink="http://www.w3.org/1999/xlink" xml:space="preserve" overflow="hidden">
  <g>
    <path d="M26.5631 20.7184 26.5631 91.5183" stroke="#707070" stroke-width="4.98591" fill="none"/>
      <path d="M24.5688 22.7128 38.5293 22.7128" stroke="#707070" stroke-width="4.98591" fill="none"/>
      <path d="M31.0504 93.5127C31.0504 95.991 29.0414 98 26.5631 98 24.0849 98 22.0758 95.991 22.0758 93.5127 22.0758 91.0344 24.0849 89.0254 26.5631 89.0254 29.0414 89.0254 31.0504 91.0344 31.0504 93.5127Z" fill="#707070"/>
      <path d="M30.5519 93.5127C30.5519 95.7156 28.766 97.5014 26.5631 97.5014 24.3602 97.5014 22.5744 95.7156 22.5744 93.5127 22.5744 91.3098 24.3602 89.524 26.5631 89.524 28.766 89.524 30.5519 91.3098 30.5519 93.5127Z" stroke="#707070" stroke-width="0.997181" fill="none"/>
      <path d="M4.62514 39.6649 4.62514 91.5183" stroke="#707070" stroke-width="4.98591" fill="none"/>
      <path d="M1.63359 41.6592 16.5913 41.6592" stroke="#707070" stroke-width="4.98591" fill="none"/>
      <path d="M9.11245 93.5127C9.11245 95.991 7.10341 98 4.62514 98 2.14686 98 0.13782 95.991 0.13782 93.5127 0.13782 91.0344 2.14686 89.0254 4.62514 89.0254 7.10341 89.0254 9.11245 91.0344 9.11245 93.5127Z" fill="#707070"/>
      <path d="M8.61386 93.5127C8.61386 95.7156 6.82805 97.5014 4.62514 97.5014 2.42222 97.5014 0.63641 95.7156 0.63641 93.5127 0.63641 91.3098 2.42222 89.524 4.62514 89.524 6.82805 89.524 8.61386 91.3098 8.61386 93.5127Z" stroke="#707070" stroke-width="0.997181" fill="none"/>
      <path d="M128.935 2.49295 67.0188 2.49295" stroke="#707070" stroke-width="4.98591" fill="none"/>
      <path d="M126.454 0.0159549 126.454 0.786776 126.465 6.59735 126.454 15.4414" stroke="#707070" stroke-width="4.98591" fill="#707070"/>
      <path d="M48.5011 0.77481 48.5011 91.5183" stroke="#707070" stroke-width="4.98591" fill="none"/>
      <path d="M46.5058 2.76917 61.4635 2.76917" stroke="#707070" stroke-width="4.98591" fill="none"/>
      <path d="M52.9884 93.5127C52.9884 95.991 50.9794 98 48.5011 98 46.0228 98 44.0138 95.991 44.0138 93.5127 44.0138 91.0344 46.0228 89.0254 48.5011 89.0254 50.9794 89.0254 52.9884 91.0344 52.9884 93.5127Z" fill="#707070"/>
      <path d="M52.4898 93.5127C52.4898 95.7156 50.704 97.5014 48.5011 97.5014 46.2982 97.5014 44.5124 95.7156 44.5124 93.5127 44.5124 91.3098 46.2982 89.524 48.5011 89.524 50.704 89.524 52.4898 91.3098 52.4898 93.5127Z" stroke="#707070" stroke-width="0.997181" fill="none"/>
      <path d="M126.454 18.0649C123.976 18.0649 121.966 16.0559 121.966 13.5776 121.966 11.0993 123.976 9.09031 126.454 9.09031 128.932 9.09031 130.941 11.0993 130.941 13.5776 130.941 16.0559 128.932 18.0649 126.454 18.0649Z" fill="#707070"/>
      <path d="M126.454 17.5663C124.251 17.5663 122.465 15.7805 122.465 13.5776 122.465 11.3747 124.251 9.5889 126.454 9.5889 128.657 9.5889 130.443 11.3747 130.443 13.5776 130.443 15.7805 128.657 17.5663 126.454 17.5663Z" stroke="#707070" stroke-width="0.997181" fill="none"/>
      <path d="M142.912 22.7228 66.927 22.7228" stroke="#707070" stroke-width="4.98591" fill="none"/>
      <path d="M140.414 20.2458 140.414 21.0166 140.425 26.8272 140.414 35.6712" stroke="#707070" stroke-width="4.98591" fill="#707070"/>
      <path d="M140.414 38.2948C137.936 38.2948 135.927 36.2857 135.927 33.8074 135.927 31.3292 137.936 29.3201 140.414 29.3201 142.893 29.3201 144.902 31.3292 144.902 33.8074 144.902 36.2857 142.893 38.2948 140.414 38.2948Z" fill="#707070"/>
      <path d="M140.414 37.7962C138.211 37.7962 136.426 36.0104 136.426 33.8074 136.426 31.6045 138.211 29.8187 140.414 29.8187 142.617 29.8187 144.403 31.6045 144.403 33.8074 144.403 36.0104 142.617 37.7962 140.414 37.7962Z" stroke="#707070" stroke-width="0.997181" fill="none"/>
      <path d="M156.873 43.6646 66.927 43.6646" stroke="#707070" stroke-width="4.98591" fill="none"/>
      <path d="M154.375 41.1886 154.375 43.8132 154.386 63.5793 154.375 93.6882" stroke="#707070" stroke-width="4.98591" fill="#707070"/>
      <path d="M154.375 98C151.897 98 149.888 95.991 149.888 93.5127 149.888 91.0344 151.897 89.0254 154.375 89.0254 156.853 89.0254 158.862 91.0344 158.862 93.5127 158.862 95.991 156.853 98 154.375 98Z" fill="#707070"/>
      <path d="M154.375 97.5014C152.172 97.5014 150.386 95.7156 150.386 93.5127 150.386 91.3098 152.172 89.524 154.375 89.524 156.578 89.524 158.364 91.3098 158.364 93.5127 158.364 95.7156 156.578 97.5014 154.375 97.5014Z" stroke="#707070" stroke-width="0.997181" fill="none"/>
      <path d="M141.59 61.5171 66.926 61.5171" stroke="#E3731D" stroke-width="4.98591" fill="none"/>
      <path d="M141.59 82.421 66.926 82.421" stroke="#E3731D" stroke-width="4.98591" fill="none"/>
  </g>
</svg>
